# AST/ASF file generated using VICON BodyLanguage
# -----------------------------------------------
:version 1.10
:name VICON
:units
  mass 1.0
  length 0.45
  angle deg
:documentation
   .ast/.asf automatically generated from VICON data using
   VICON BodyBuilder and BodyLanguage model FoxedUp or BRILLIANT.MOD
:root
   order TX TY TZ RX RY RZ
   axis XYZ
   position 0 0 0  
   orientation 0 0 0 
:bonedata
  begin
     id 1 
     name lhipjoint
     direction 0.630082 -0.636569 0.44472 
     length 2.82754 
     axis 0 0 0  XYZ
  end
  begin
     id 2 
     name lfemur
     direction 0.34202 -0.939693 0  
     length 7.26371  
     axis 0 0 20  XYZ
    dof rx ry rz
    limits (-160.0 20.0)
           (-70.0 70.0)
           (-60.0 70.0)
  end
  begin
     id 3 
     name ltibia
     direction 0.34202 -0.939693 0   
     length 7.88616   
     axis 0 0 20   XYZ
    dof rx
    limits (-10.0 170.0)
  end
  begin
     id 4 
     name lfoot
     direction 0.0603448 -0.165796 0.984312   
     length 1.77861   
     axis -90 7.62852e-016 20   XYZ
    dof rx rz
    limits (-45.0 90.0)
           (-70.0 20.0)
  end
  begin
     id 5 
     name ltoes
     direction 1.53577e-011 -4.21876e-011 1   
     length 0.902235   
     axis -90 7.62852e-016 20   XYZ
    dof rx
    limits (-90.0 20.0)
  end
  begin
     id 6 
     name rhipjoint
     direction -0.656778 -0.61817 0.431866   
     length 2.9117  
     axis 0 0 0  XYZ 
  end
  begin
     id 7 
     name rfemur
     direction -0.34202 -0.939693 0   
     length 6.81603   
     axis 0 0 -20   XYZ
    dof rx ry rz
    limits (-160.0 20.0)
           (-70.0 70.0)
           (-70.0 60.0)
  end
  begin
     id 8 
     name rtibia
     direction -0.34202 -0.939693 0   
     length 8.05997   
     axis 0 0 -20   XYZ
    dof rx
    limits (-10.0 170.0)
 end
 begin
     id 9 
     name rfoot
     direction -0.0862404 -0.236944 0.967688   
     length 1.84899  
     axis -90 -7.62852e-016 -20   XYZ
    dof rx rz
    limits (-45.0 90.0)
           (-20.0 70.0)
  end
  begin
     id 10 
     name rtoes
     direction -1.53561e-011 -4.21798e-011 1   
     length 0.931579   
     axis -90 -7.62852e-016 -20   XYZ
    dof rx
    limits (-90.0 20.0)
  end
  begin
     id 11 
     name lowerback
     direction -0.0110203 0.991769 -0.127564   
     length 2.05686   
     axis 0 0 0   XYZ
    dof rx ry rz
    limits (-20.0 45.0)
           (-30.0 30.0)
           (-30.0 30.0)
  end
  begin
     id 12 
     name upperback
     direction 0.0109719 0.99993 -0.00432479   
     length 2.06234   
     axis 0 0 0   XYZ
    dof rx ry rz
    limits (-20.0 45.0)
           (-30.0 30.0)
           (-30.0 30.0)
  end
  begin
     id 13 
     name thorax
     direction 0.0173308 0.998351 0.0547306   
     length 2.09856   
     axis 0 0 0   XYZ
    dof rx ry rz
    limits (-20.0 45.0)
           (-30.0 30.0)
           (-30.0 30.0)
  end
  begin
     id 14 
     name lowerneck
     direction -0.0311736 0.989033 0.144366   
     length 1.98151   
     axis 0 0 0   XYZ
    dof rx ry rz
    limits (-20.0 45.0)
           (-30.0 30.0)
           (-30.0 30.0)
  end
  begin
     id 15 
     name upperneck
     direction 0.0421057 0.975772 -0.214698   
     length 2.01457   
     axis 0 0 0   XYZ
    dof rx ry rz
    limits (-20.0 45.0)
           (-30.0 30.0)
           (-30.0 30.0)
  end
  begin
     id 16
     name head
     direction 0.0136911 0.995958 -0.0887718  
     length 2.03562  
     axis 0 0 0   XYZ
    dof rx ry rz
    limits (-20.0 45.0)
           (-30.0 30.0)
           (-30.0 30.0)
  end
  begin
     id 17 
     name lclavicle
     direction 0.915335 0.396201 0.0720134  
     length 4.16217  
     axis 0 0 0   XYZ
    dof ry rz
    limits (-20.0 10.0)
           (0.0 20.0)
  end
  begin
     id 18 
     name lhumerus
     direction 1 -4.48965e-011 6.383e-018   
     length 4.93042   
     axis -180 -30 -90   XYZ
    dof rx ry rz
    limits (-60.0 90.0)
           (-90.0 90.0)
           (-90.0 90.0)
  end
  begin
     id 19
     name lradius
     direction 1 -4.48972e-011 8.8689e-027   
     length 3.68177   
     axis -180 -30 -90   XYZ
    dof rx
    limits (-10.0 170.0)
  end
  begin
     id 20
     name lwrist
     direction 1 -4.48953e-011 1.17971e-026   
     length 1.84089   
     axis -7.69454e-015 90 90   XYZ
    dof ry
    limits (-180.0 0.0)
 end
  begin
     id 21 
     name lhand
     direction 1 -4.49027e-011 2.35802e-026   
     length 0.721479   
     axis -1.50533e-014 90 90   XYZ
    dof rx rz
    limits (-90.0 90.0)
           (-45.0 45.0)
  end
  begin
     id 22 
     name lfingers
     direction 1 -4.48915e-011 4.72027e-026   
     length 0.581675   
     axis -3.01059e-014 90 90   XYZ
    dof rx
    limits (0.0 90.0)
  end
  begin
     id 23
     name lthumb
     direction 0.707107 -6.34948e-011 0.707107   
     length 0.835172   
     axis -90 45 -5.12164e-014   XYZ
    dof rx rz
    limits (-45.0 45.0)
           (-45.0 45.0)
  end
  begin
     id 24 
     name rclavicle
     direction -0.882781 0.469197 0.0234974   
     length 3.95647  
     axis 0 0 0   XYZ 
    dof ry rz
    limits (-10.0 20.0)
           (-20.0 0.0)
  end
  begin
     id 25 
     name rhumerus
     direction -1 -4.48965e-011 -1.54906e-018  
     length 5.07905   
     axis -180 30 90   XYZ
    dof rx ry rz
    limits (-90.0 60.0)
           (-90.0 90.0)
           (-90.0 90.0)
  end
  begin
     id 26 
     name rradius
     direction -1 -4.48972e-011 5.47489e-027   
     length 3.54394   
     axis -180 30 90   XYZ
    dof rx
    limits (-10.0 170.0)
  end
  begin
     id 27 
     name rwrist
     direction -1 -4.48955e-011 1.17969e-026   
     length 1.77197   
     axis -7.69454e-015 -90 -90   XYZ
    dof ry
    limits (-180.0 0.0)
  end
  begin
     id 28
     name rhand
     direction -1 -4.48982e-011 2.35888e-026   
     length 0.681156   
     axis -1.50533e-014 -90 -90   XYZ
    dof rx rz
    limits (-90.0 90.0)
           (-45.0 45.0)
  end
  begin
     id 29
     name rfingers
     direction -1 -4.48955e-011 4.71877e-026   
     length 0.549165   
     axis -3.01059e-014 -90 -90   XYZ
    dof rx
    limits (0.0 90.0)
  end
  begin
     id 30
     name rthumb
     direction -0.707107 -6.3491e-011 0.707107   
     length 0.788495   
     axis -90 -45 5.12164e-014   XYZ
    dof rx rz
    limits (-45.0 45.0)
           (-45.0 45.0)
  end
:hierarchy
  begin
    root lhipjoint rhipjoint lowerback
    lhipjoint lfemur
    lfemur ltibia
    ltibia lfoot
    lfoot ltoes
    rhipjoint rfemur
    rfemur rtibia
    rtibia rfoot
    rfoot rtoes
    lowerback upperback
    upperback thorax
    thorax lowerneck lclavicle rclavicle
    lowerneck upperneck
    upperneck head
    lclavicle lhumerus
    lhumerus lradius
    lradius lwrist
    lwrist lhand lthumb
    lhand lfingers
    rclavicle rhumerus
    rhumerus rradius
    rradius rwrist
    rwrist rhand rthumb
    rhand rfingers
  end

#!OML:ASF H:\Bending\Project 1\Capture day 1\Session 1\Subject.ASF
:FULLY-SPECIFIED
:DEGREES
176
root -9.9369 17.949 -16.4445 -173.749 85.9814 -177.071
lowerback 3.12284 -0.0279675 -0.346244
upperback -4.1869 0.0960116 1.7724
thorax -6.10247 0.133066 2.02784
lowerneck -24.381 -5.62584 -8.84815
upperneck 33.5476 -5.74124 4.60341
head 16.6486 -2.61725 2.38977
rclavicle 1.03617e-014 7.55382e-015
rhumerus -17.8039 19.0155 -86.3561
rradius 88.8588
rwrist 6.55477
rhand -26.0881 -43.9278
rfingers 7.12502
rthumb 0.460701 -73.9071
lclavicle 1.03617e-014 7.55382e-015
lhumerus -17.1737 -27.282 96.8914
lradius 87.514
lwrist 36.5121
lhand -40.0802 24.7184
lfingers 7.12502
lthumb -13.0451 54.2905
rfemur 8.18172 -1.53964 15.2387
rtibia -9.54166e-015
rfoot -10.4809 -18.3217
rtoes 1.80565
lfemur -5.19131 -12.2374 -13.4422
ltibia 21.5015
lfoot -21.371 4.60003
ltoes 10.8187
177
root -9.94059 17.9521 -16.4433 -173.15 86.2856 -176.567
lowerback 3.00943 0.0632633 -0.271123
upperback -4.22377 0.22466 1.77637
thorax -6.08077 0.19431 1.97887
lowerneck -24.6232 -5.61248 -8.80448
upperneck 33.6674 -5.68125 4.50133
head 16.7546 -2.60026 2.34954
rclavicle -1.12313e-014 1.15295e-014
rhumerus -16.7664 18.792 -86.2011
rradius 88.2319
rwrist 6.89583
rhand -25.3635 -43.9649
rfingers 7.12502
rthumb 1.16045 -73.9415
lclavicle -1.12313e-014 1.15295e-014
lhumerus -16.4073 -27.2553 96.6658
lradius 86.9791
lwrist 36.366
lhand -40.3358 24.8061
lfingers 7.12502
lthumb -13.2914 54.3623
rfemur 8.007 -1.24384 15.2703
rtibia -1.27222e-014
rfoot -10.4346 -18.3557
rtoes 1.43524
lfemur -5.17885 -12.2732 -13.4542
ltibia 21.4495
lfoot -21.5295 4.91752
ltoes 10.6355
178
root -9.94534 17.9557 -16.4428 -172.064 86.4563 -175.597
lowerback 2.90359 0.0917761 -0.16022
upperback -4.25652 0.272688 1.80402
thorax -6.05586 0.214678 1.94135
lowerneck -24.9239 -5.57287 -8.6923
upperneck 33.8032 -5.58035 4.32942
head 16.8732 -2.568 2.2747
rclavicle 2.48481e-015 7.55382e-015
rhumerus -15.7129 18.6624 -86.0383
rradius 87.6255
rwrist 7.346
rhand -24.922 -43.9084
rfingers 7.12502
rthumb 1.58687 -73.8822
lclavicle 2.48481e-015 7.55382e-015
lhumerus -15.7183 -27.1153 96.4594
lradius 86.5579
lwrist 36.2315
lhand -40.5474 24.851
lfingers 7.12502
lthumb -13.4955 54.3937
rfemur 7.82772 -1.07811 15.342
rtibia 1.11319e-014
rfoot -10.3712 -18.417
rtoes 0.881321
lfemur -5.26542 -12.3116 -13.3998
ltibia 21.4534
lfoot -21.6439 5.10413
ltoes 10.6509
179
root -9.95094 17.9591 -16.443 -170.854 86.4522 -174.506
lowerback 2.80574 0.0409673 -0.0260426
upperback -4.27442 0.216315 1.85245
thorax -6.01618 0.182611 1.9208
lowerneck -25.2732 -5.50965 -8.53664
upperneck 33.9449 -5.4444 4.11768
head 17.0005 -2.52199 2.18148
rclavicle -1.98785e-015 6.36111e-015
rhumerus -14.6143 18.6785 -85.8415
rradius 87.0396
rwrist 7.76445
rhand -24.7866 -43.7457
rfingers 7.12502
rthumb 1.71766 -73.7186
lclavicle -1.98785e-015 6.36111e-015
lhumerus -15.0689 -26.8578 96.2462
lradius 86.2124
lwrist 36.1343
lhand -40.7422 24.8517
lfingers 7.12502
lthumb -13.6832 54.3819
rfemur 7.66671 -1.08296 15.4388
rtibia -6.36111e-015
rfoot -10.2569 -18.5088
rtoes 0.00987686
lfemur -5.44531 -12.3623 -13.2945
ltibia 21.5126
lfoot -21.6936 5.14095
ltoes 10.8769
180
root -9.95754 17.9621 -16.4438 -169.989 86.3021 -173.748
lowerback 2.72364 -0.0792769 0.109722
upperback -4.2689 0.0664314 1.91194
thorax -5.95801 0.103989 1.91796
lowerneck -25.6599 -5.42861 -8.36798
upperneck 34.079 -5.28604 3.9071
head 17.1316 -2.46555 2.09058
rclavicle 5.61567e-015 0
rhumerus -13.4389 18.8741 -85.5946
rradius 86.4611
rwrist 8.01643
rhand -24.8347 -43.5234
rfingers 7.12502
rthumb 1.67122 -73.4966
lclavicle 5.61567e-015 0
lhumerus -14.3989 -26.5123 95.986
lradius 85.8738
lwrist 36.0927
lhand -40.9563 24.8237
lfingers 7.12502
lthumb -13.8896 54.3399
rfemur 7.5355 -1.23171 15.5332
rtibia 1.43125e-014
rfoot -10.0863 -18.6167
rtoes -1.11825
lfemur -5.68377 -12.4286 -13.1744
ltibia 21.6085
lfoot -21.681 5.06429
ltoes 11.2581
181
root -9.96545 17.9645 -16.4449 -169.67 86.0881 -173.516
lowerback 2.66974 -0.237286 0.224213
upperback -4.23717 -0.136726 1.96969
thorax -5.88706 -0.000688327 1.92894
lowerneck -26.0705 -5.33688 -8.20893
upperneck 34.1872 -5.12159 3.73322
head 17.2577 -2.40319 2.01826
rclavicle -1.59028e-015 -2.38542e-015
rhumerus -12.1596 19.2496 -85.2934
rradius 85.8631
rwrist 8.03713
rhand -24.8886 -43.3263
rfingers 7.12502
rthumb 1.61918 -73.2999
lclavicle -1.59028e-015 -2.38542e-015
lhumerus -13.6451 -26.1323 95.6346
lradius 85.4672
lwrist 36.1268
lhand -41.2095 24.7998
lfingers 7.12502
lthumb -14.1335 54.2991
rfemur 7.43161 -1.44594 15.5983
rtibia -4.77083e-015
rfoot -9.88568 -18.7152
rtoes -2.26852
lfemur -5.93144 -12.4989 -13.0771
ltibia 21.7109
lfoot -21.6256 4.93922
ltoes 11.6949
182
root -9.97483 17.9665 -16.446 -169.787 85.9055 -173.702
lowerback 2.6529 -0.392917 0.303584
upperback -4.18415 -0.340432 2.01476
thorax -5.8152 -0.104918 1.94616
lowerneck -26.4878 -5.24108 -8.06739
upperneck 34.2488 -4.96631 3.61302
head 17.3655 -2.33969 1.97014
rclavicle -2.03754e-015 -1.98785e-014
rhumerus -10.7612 19.7661 -84.9414
rradius 85.2097
rwrist 7.86084
rhand -24.8263 -43.2434
rfingers 7.12502
rthumb 1.67934 -73.2165
lclavicle -2.03754e-015 -1.98785e-014
lhumerus -12.7664 -25.7788 95.1594
lradius 84.9406
lwrist 36.2574
lhand -41.4906 24.8213
lfingers 7.12502
lthumb -14.4044 54.3015
rfemur 7.33921 -1.6326 15.6214
rtibia -1.74931e-014
rfoot -9.69784 -18.7821
rtoes -3.16291
lfemur -6.14631 -12.5459 -13.0239
ltibia 21.7904
lfoot -21.5514 4.82587
ltoes 12.0705
183
root -9.98545 17.9688 -16.4465 -170.12 85.8209 -174.1
lowerback 2.67333 -0.51344 0.347122
upperback -4.12145 -0.500532 2.04128
thorax -5.75596 -0.186717 1.96096
lowerneck -26.8915 -5.1463 -7.93834
upperneck 34.2455 -4.83012 3.54084
head 17.4402 -2.27927 1.94059
rclavicle -2.6339e-015 -3.97569e-015
rhumerus -9.24668 20.3539 -84.545
rradius 84.4657
rwrist 7.59929
rhand -24.6463 -43.3265
rfingers 7.12502
rthumb 1.85319 -73.2982
lclavicle -2.6339e-015 -3.97569e-015
lhumerus -11.7614 -25.5027 94.5539
lradius 84.2875
lwrist 36.4964
lhand -41.7635 24.9174
lfingers 7.12502
lthumb -14.6673 54.3786
rfemur 7.23506 -1.72537 15.6064
rtibia 3.18055e-015
rfoot -9.55729 -18.8102
rtoes -3.62944
lfemur -6.31081 -12.5389 -13.013
ltibia 21.8275
lfoot -21.4755 4.75577
ltoes 12.2991
184
root -9.99686 17.9721 -16.4462 -170.49 85.8483 -174.552
lowerback 2.72303 -0.585025 0.364915
upperback -4.06381 -0.597179 2.04951
thorax -5.72084 -0.236364 1.9668
lowerneck -27.261 -5.05509 -7.81031
upperneck 34.1686 -4.71417 3.49247
head 17.4705 -2.22445 1.91642
rclavicle 6.70898e-015 -2.8625e-014
rhumerus -7.63917 20.9333 -84.1109
rradius 83.6081
rwrist 7.38264
rhand -24.4512 -43.5597
rfingers 7.12502
rthumb 2.04163 -73.5297
lclavicle 6.70898e-015 -2.8625e-014
lhumerus -10.6687 -25.3305 93.843
lradius 83.5491
lwrist 36.8306
lhand -41.9837 25.0878
lfingers 7.12502
lthumb -14.8794 54.5335
rfemur 7.09684 -1.70971 15.5688
rtibia -1.11319e-014
rfoot -9.47218 -18.8091
rtoes -3.68371
lfemur -6.43675 -12.4638 -13.0262
ltibia 21.8174
lfoot -21.4021 4.72888
ltoes 12.3625
185
root -10.0086 17.9769 -16.4452 -170.803 85.9545 -174.976
lowerback 2.78986 -0.614018 0.372855
upperback -4.02367 -0.637187 2.04416
thorax -5.71578 -0.257521 1.96029
lowerneck -27.5818 -4.96754 -7.67372
upperneck 34.0235 -4.61156 3.438
head 17.4535 -2.17562 1.88415
rclavicle 1.32689e-014 -4.77083e-015
rhumerus -5.97816 21.436 -83.6489
rradius 82.6314
rwrist 7.29796
rhand -24.3737 -43.8623
rfingers 7.12502
rthumb 2.11648 -73.8316
lclavicle 1.32689e-014 -4.77083e-015
lhumerus -9.55016 -25.2592 93.0754
lradius 82.7947
lwrist 37.2123
lhand -42.1165 25.2969
lfingers 7.12502
lthumb -15.0074 54.733
rfemur 6.91145 -1.6185 15.5256
rtibia 2.38542e-014
rfoot -9.42455 -18.7979
rtoes -3.50013
lfemur -6.55442 -12.3361 -13.0417
ltibia 21.7688
lfoot -21.3283 4.73032
ltoes 12.3157
186
root -10.0201 17.9833 -16.4442 -171.048 86.0862 -175.366
lowerback 2.86274 -0.618643 0.385878
upperback -4.00604 -0.643612 2.03126
thorax -5.73909 -0.261985 1.94095
lowerneck -27.8498 -4.882 -7.5264
upperneck 33.8298 -4.51116 3.35533
head 17.3975 -2.13119 1.83638
rclavicle 8.02593e-015 -3.18055e-015
rhumerus -4.30996 21.8211 -83.1754
rradius 81.5455
rwrist 7.35733
rhand -24.4959 -44.1239
rfingers 7.12502
rthumb 1.99838 -74.0943
lclavicle 8.02593e-015 -3.18055e-015
lhumerus -8.46364 -25.2588 92.3082
lradius 82.0873
lwrist 37.5672
lhand -42.1448 25.4825
lfingers 7.12502
lthumb -15.0346 54.9166
rfemur 6.68035 -1.50412 15.486
rtibia 9.54166e-015
rfoot -9.38434 -18.7949
rtoes -3.30986
lfemur -6.6923 -12.1986 -13.0483
ltibia 21.6976
lfoot -21.253 4.75312
ltoes 12.2506
187
root -10.0314 17.991 -16.4442 -171.286 86.2031 -175.774
lowerback 2.93537 -0.616883 0.41266
upperback -4.00682 -0.640004 2.01511
thorax -5.78216 -0.261782 1.90999
lowerneck -28.0712 -4.79704 -7.37624
upperneck 33.6157 -4.40439 3.2417
head 17.3189 -2.08889 1.77593
rclavicle 1.41634e-015 -1.43125e-014
rhumerus -2.67662 22.0786 -82.7138
rradius 80.3673
rwrist 7.50722
rhand -24.8022 -44.2515
rfingers 7.12502
rthumb 1.70259 -74.2244
lclavicle 1.41634e-015 -1.43125e-014
lhumerus -7.43764 -25.2839 91.5871
lradius 81.4505
lwrist 37.8211
lhand -42.0648 25.5849
lfingers 7.12502
lthumb -14.9576 55.0248
rfemur 6.41881 -1.40624 15.4484
rtibia -1.11319e-014
rfoot -9.32967 -18.8082
rtoes -3.2678
lfemur -6.86088 -12.1038 -13.0497
ltibia 21.6206
lfoot -21.1837 4.80876
ltoes 12.2542
188
root -10.0424 17.9991 -16.4461 -171.597 86.2954 -176.261
lowerback 3.00795 -0.61737 0.453272
upperback -4.01503 -0.638288 1.9973
thorax -5.83317 -0.263018 1.86979
lowerneck -28.2585 -4.71313 -7.2372
upperneck 33.4097 -4.28954 3.11253
head 17.2368 -2.04718 1.71317
rclavicle 8.12532e-015 -7.95139e-016
rhumerus -1.10616 22.2232 -82.2885
rradius 79.1107
rwrist 7.66811
rhand -25.1815 -44.2083
rfingers 7.12502
rthumb 1.33631 -74.1838
lclavicle 8.12532e-015 -7.95139e-016
lhumerus -6.45865 -25.2866 90.9341
lradius 80.8527
lwrist 37.9327
lhand -41.8759 25.5707
lfingers 7.12502
lthumb -14.7756 55.024
rfemur 6.15076 -1.33344 15.4045
rtibia -3.18055e-015
rfoot -9.25801 -18.8335
rtoes -3.38218
lfemur -7.04761 -12.0879 -13.0596
ltibia 21.5503
lfoot -21.1343 4.91948
ltoes 12.362
189
root -10.0532 18.007 -16.4502 -172.005 86.382 -176.829
lowerback 3.08545 -0.617094 0.501495
upperback -4.0179 -0.635295 1.97782
thorax -5.88151 -0.264113 1.82346
lowerneck -28.4236 -4.63371 -7.12409
upperneck 33.2318 -4.17332 2.99321
head 17.1662 -2.00647 1.66087
rclavicle 3.10601e-015 1.27222e-014
rhumerus 0.390191 22.2818 -81.9158
rradius 77.7831
rwrist 7.7813
rhand -25.6421 -43.9319
rfingers 7.12502
rthumb 0.89145 -73.9098
lclavicle 3.10601e-015 1.27222e-014
lhumerus -5.47711 -25.2278 90.3484
lradius 80.2159
lwrist 37.9157
lhand -41.5741 25.4475
lfingers 7.12502
lthumb -14.4848 54.9219
rfemur 5.90066 -1.26541 15.3482
rtibia 1.11319e-014
rfoot -9.1848 -18.8583
rtoes -3.53161
lfemur -7.22497 -12.1525 -13.09
ltibia 21.4934
lfoot -21.1168 5.10093
ltoes 12.5361
